<svg id="Groupe_26" data-name="Groupe 26" xmlns="http://www.w3.org/2000/svg" width="30" height="30" viewBox="0 0 30 30">
  <path id="Tracé_9" data-name="Tracé 9" d="M27.188,0H2.813A2.812,2.812,0,0,0,0,2.813V27.188A2.812,2.812,0,0,0,2.813,30H27.188A2.812,2.812,0,0,0,30,27.188V2.813A2.812,2.812,0,0,0,27.188,0Zm.938,27.188a.937.937,0,0,1-.937.938H2.813a.937.937,0,0,1-.938-.937V2.813a.937.937,0,0,1,.938-.938H27.188a.937.937,0,0,1,.938.938Z" fill="#fbfbfb"/>
  <path id="Tracé_10" data-name="Tracé 10" d="M94.81,242.606a.762.762,0,0,0-1.232,0l-2.009,2.479-3.748-4.625a.762.762,0,0,0-1.232,0l-6.115,7.546a1.263,1.263,0,0,0,.012,1.524.8.8,0,0,0,.6.308H98.557a.989.989,0,0,0,.879-1.072,1.218,1.218,0,0,0-.258-.772Z" transform="translate(-74.819 -226.9)" fill="#fbfbfb"/>
  <ellipse id="Ellipse_3" data-name="Ellipse 3" cx="3.144" cy="3.369" rx="3.144" ry="3.369" transform="translate(14.65 7.077)" fill="#fbfbfb"/>
</svg>
