<svg xmlns="http://www.w3.org/2000/svg" width="20" height="20" viewBox="0 0 20 20"><g transform="translate(-86.128 -241.039)"><path d="M19.994,42.1H31.606A4.185,4.185,0,0,0,35.8,37.906V33.035a.95.95,0,0,0-.968-.968h0a.95.95,0,0,0-.968.968v4.871a2.244,2.244,0,0,1-2.258,2.258H19.994a2.244,2.244,0,0,1-2.258-2.258V26.294a2.244,2.244,0,0,1,2.258-2.258h4.871a.968.968,0,1,0,0-1.935H19.994A4.185,4.185,0,0,0,15.8,26.294h0V37.906A4.185,4.185,0,0,0,19.994,42.1Z" transform="translate(70.328 218.939)" fill="#fff"/><path d="M56.427,21.842V16.675a.358.358,0,0,0-.028-.169c0-.028,0-.056-.028-.056,0-.028-.028-.056-.028-.085s-.028-.056-.056-.085a.1.1,0,0,0-.028-.056A.859.859,0,0,0,56.031,16l-.056-.028a.2.2,0,0,0-.169-.113l-.085-.028c-.056,0-.113-.028-.169-.028H50.385a.847.847,0,1,0,0,1.694h3.134l-7.764,7.793a.839.839,0,0,0,1.186,1.186l4.267-4.254,3.526-3.511v3.134a.832.832,0,0,0,.847.847h0A.889.889,0,0,0,56.427,21.842Z" transform="translate(49.561 225.408)" fill="#fff"/></g></svg>