<svg xmlns="http://www.w3.org/2000/svg" width="27" height="17.467" viewBox="0 0 27 17.467">
  <g id="uk_sq" data-name="uk sq" transform="translate(0.128 0)">
    <rect id="Rectangle_54" data-name="Rectangle 54" width="27" height="17" transform="translate(-0.128 0.467)" fill="#f0f0f0"/>
    <path id="Tracé_32" data-name="Tracé 32" d="M15.115,85.33H11.756v7.1H0V95.7H11.756v7.1h3.359V95.7H26.872V92.426H15.115Z" transform="translate(0 -85.33)" fill="#d80027"/>
    <g id="Groupe_52" data-name="Groupe 52" transform="translate(16.037 11.447)">
      <path id="Tracé_33" data-name="Tracé 33" d="M393.785,315.358l6.393,3.552v-3.552Z" transform="translate(-389.343 -315.358)" fill="#0052b4"/>
      <path id="Tracé_34" data-name="Tracé 34" d="M311.652,315.358l10.834,6.019v-1.7l-7.771-4.317Z" transform="translate(-311.652 -315.358)" fill="#0052b4"/>
      <path id="Tracé_35" data-name="Tracé 35" d="M319.6,349.414,311.652,345v4.416Z" transform="translate(-311.652 -343.395)" fill="#0052b4"/>
    </g>
    <path id="Tracé_36" data-name="Tracé 36" d="M311.652,315.358l10.834,6.019v-1.7l-7.771-4.317Z" transform="translate(-295.615 -303.911)" fill="#f0f0f0"/>
    <path id="Tracé_37" data-name="Tracé 37" d="M311.652,315.358l10.834,6.019v-1.7l-7.771-4.317Z" transform="translate(-295.615 -303.911)" fill="#d80027"/>
    <g id="Groupe_53" data-name="Groupe 53" transform="translate(0 11.447)">
      <path id="Tracé_38" data-name="Tracé 38" d="M4.885,315.356,0,318.07v-2.714Z" transform="translate(0 -315.356)" fill="#0052b4"/>
      <path id="Tracé_39" data-name="Tracé 39" d="M34.947,329.51v5.254H25.491Z" transform="translate(-24.113 -328.745)" fill="#0052b4"/>
    </g>
    <path id="Tracé_40" data-name="Tracé 40" d="M7.771,315.358,0,319.675v1.7H0l10.834-6.019Z" transform="translate(0 -303.911)" fill="#d80027"/>
    <g id="Groupe_54" data-name="Groupe 54" transform="translate(0 0)">
      <path id="Tracé_41" data-name="Tracé 41" d="M6.393,134.51,0,130.958v3.552Z" transform="translate(0 -128.491)" fill="#0052b4"/>
      <path id="Tracé_42" data-name="Tracé 42" d="M10.834,91.349,0,85.33v1.7l7.771,4.317Z" transform="translate(0 -85.33)" fill="#0052b4"/>
      <path id="Tracé_43" data-name="Tracé 43" d="M53.366,85.33l7.948,4.416V85.33Z" transform="translate(-50.48 -85.33)" fill="#0052b4"/>
    </g>
    <path id="Tracé_44" data-name="Tracé 44" d="M10.834,91.349,0,85.33v1.7l7.771,4.317Z" transform="translate(0 -85.33)" fill="#f0f0f0"/>
    <path id="Tracé_45" data-name="Tracé 45" d="M10.834,91.349,0,85.33v1.7l7.771,4.317Z" transform="translate(0 -85.33)" fill="#d80027"/>
    <g id="Groupe_55" data-name="Groupe 55" transform="translate(16.037 0)">
      <path id="Tracé_46" data-name="Tracé 46" d="M421.659,149.16l4.885-2.714v2.714Z" transform="translate(-415.71 -143.141)" fill="#0052b4"/>
      <path id="Tracé_47" data-name="Tracé 47" d="M311.652,90.585V85.331h9.456Z" transform="translate(-311.652 -85.331)" fill="#0052b4"/>
    </g>
    <path id="Tracé_48" data-name="Tracé 48" d="M314.716,91.349l7.771-4.317v-1.7h0l-10.834,6.019Z" transform="translate(-295.615 -85.33)" fill="#d80027"/>
  </g>
</svg>
